<svg xmlns="http://www.w3.org/2000/svg" viewBox="0 0 64 64">
  <rect width="64" height="64" rx="14" fill="#2D5F3F"/>
  <svg x="10" y="10" width="44" height="44" viewBox="0 0 24 24" fill="none" stroke="#EAF0E7" stroke-width="1.75" stroke-linecap="round" stroke-linejoin="round">
    <path d="M6 11h12v5.5a3.5 3.5 0 0 1-3.5 3.5h-5A3.5 3.5 0 0 1 6 16.5V11Z"/>
    <path d="M4 11h16"/>
    <path d="M4 11c-1.1 0-2-.67-2-1.5S2.9 8 4 8"/>
    <path d="M20 11c1.1 0 2-.67 2-1.5S21.1 8 20 8"/>
    <circle cx="12" cy="5" r="1"/>
    <path d="M12 6v1.3"/>
  </svg>
</svg>
